<svg width="24" height="24" viewBox="0 0 24 24" fill="none" xmlns="http://www.w3.org/2000/svg">
<rect width="24" height="24" rx="12" fill="#189A93"/>
<path d="M9.306 17C9.10067 17 8.94667 16.9533 8.844 16.86C8.75067 16.7573 8.704 16.622 8.704 16.454C8.704 16.3513 8.72733 16.2533 8.774 16.16C8.83 16.0573 8.90467 15.9547 8.998 15.852L12.134 12.492C12.61 11.9787 12.9507 11.5073 13.156 11.078C13.3707 10.6393 13.478 10.196 13.478 9.748C13.478 9.188 13.3053 8.76333 12.96 8.474C12.624 8.17533 12.1293 8.026 11.476 8.026C11.056 8.026 10.6593 8.09133 10.286 8.222C9.91267 8.35267 9.55333 8.55333 9.208 8.824C9.08667 8.91733 8.97467 8.95933 8.872 8.95C8.77867 8.94067 8.69467 8.90333 8.62 8.838C8.54533 8.77267 8.494 8.68867 8.466 8.586C8.438 8.48333 8.438 8.38067 8.466 8.278C8.50333 8.17533 8.578 8.082 8.69 7.998C9.054 7.69933 9.49267 7.46133 10.006 7.284C10.5193 7.09733 11.042 7.004 11.574 7.004C12.2367 7.004 12.7967 7.10667 13.254 7.312C13.7113 7.51733 14.0567 7.82067 14.29 8.222C14.5233 8.614 14.64 9.09467 14.64 9.664C14.64 10.056 14.5747 10.4433 14.444 10.826C14.3227 11.1993 14.1313 11.582 13.87 11.974C13.618 12.366 13.2867 12.772 12.876 13.192L9.894 16.342V16.02H14.612C14.7893 16.02 14.92 16.062 15.004 16.146C15.0973 16.2207 15.144 16.3373 15.144 16.496C15.144 16.664 15.0973 16.79 15.004 16.874C14.92 16.958 14.7893 17 14.612 17H9.306Z" fill="#FDFEFE"/>
</svg>
